<?xml version="1.0" encoding="UTF-8" standalone="no"?>
<svg
   xmlns:dc="http://purl.org/dc/elements/1.1/"
   xmlns:cc="http://creativecommons.org/ns#"
   xmlns:rdf="http://www.w3.org/1999/02/22-rdf-syntax-ns#"
   xmlns:svg="http://www.w3.org/2000/svg"
   xmlns="http://www.w3.org/2000/svg"
   viewBox="0 0 733.33331 533.33331"
   height="533.33331"
   width="733.33331"
   xml:space="preserve"
   id="svg2"
   version="1.1"><metadata
     id="metadata8"><rdf:RDF><cc:Work
         rdf:about=""><dc:format>image/svg+xml</dc:format><dc:type
           rdf:resource="http://purl.org/dc/dcmitype/StillImage" /></cc:Work></rdf:RDF></metadata><defs
     id="defs6"><clipPath
       id="clipPath18"
       clipPathUnits="userSpaceOnUse"><path
         id="path16"
         d="M 0,400 H 550 V 0 H 0 Z" /></clipPath></defs><g
     transform="matrix(1.3333333,0,0,-1.3333333,0,533.33333)"
     id="g10"><g
       id="g12"><g
         clip-path="url(#clipPath18)"
         id="g14"><g
           transform="translate(346.1504,246.7998)"
           id="g20"><path
             id="path22"
             style="fill:#8fde49;fill-opacity:1;fill-rule:evenodd;stroke:none"
             d="m 0,0 c 13.733,-15.9 20.6,-34.6 20.6,-56.1 v -0.1 c 0,-23.866 -8.401,-44.216 -25.201,-61.05 -14.899,-14.8 -32.433,-23.1 -52.599,-24.899 v -0.351 h -96.05 c 12.667,0.9 24.2,3.117 34.6,6.65 3.799,1.467 7.299,2.967 10.5,4.5 30.766,14.967 45.583,44.15 44.45,87.55 -52.767,-4 -82.25,-30.983 -88.45,-80.95 l -0.65,-6.6 c -0.2,-2.066 -0.35,-4.15 -0.45,-6.25 V 30.15 h 96.05 v -0.4 C -37.034,27.983 -19.5,19.7 -4.601,4.9 Z" /></g></g></g></g></svg>