<?xml version="1.0" encoding="UTF-8"?>
<svg width="97px" height="23px" viewBox="0 0 97 23" version="1.1" xmlns="http://www.w3.org/2000/svg" xmlns:xlink="http://www.w3.org/1999/xlink">
    <!-- Generator: Sketch 51.2 (57519) - http://www.bohemiancoding.com/sketch -->
    <title>logo-canada</title>
    <desc>Created with Sketch.</desc>
    <defs></defs>
    <g id="UI" stroke="none" stroke-width="1" fill="none" fill-rule="evenodd">
        <g id="Home/1.-Home" transform="translate(-138.000000, -28.000000)">
            <g id="logo-canada" transform="translate(138.000000, 28.000000)">
                <g id="logo" fill-rule="nonzero">
                    <path d="M0.32,5.05066667 C0.321333333,4.556 0.654666667,4.308 1.064,4.308 L8.308,4.308 C10.5306667,4.56133333 12.084,5.69333333 12.236,8.668 L12.236,12.6933333 C12.236,13.2906667 12.2,13.7933333 12.028,14.3746667 C11.452,16.312 10.0666667,17.2746667 7.99733333,17.4093333 L4.89066667,17.4093333 C4.89066667,19.052 4.89066667,20.6933333 4.89066667,22.336 C4.89066667,22.7066667 4.58,22.8906667 4.204,22.8906667 C3.116,22.8906667 2.02933333,22.8906667 0.941333333,22.8906667 C0.544,22.8906667 0.252,22.6693333 0.253333333,22.2253333 L0.32,5.05066667 Z M4.924,8.87466667 L4.924,12.7826667 L6.852,12.7826667 C7.28533333,12.7826667 7.64133333,12.4253333 7.64133333,11.9906667 L7.64133333,9.66533333 C7.64133333,9.23066667 7.28533333,8.87466667 6.852,8.87466667 L4.924,8.87466667 Z" id="Fill-1" fill="#ffffff"></path>
                    <path d="M15.8053333,4.33066667 L20.868,4.33066667 C23.832,4.50266667 25.436,6.05866667 25.3946667,9.28533333 L25.3946667,21.2346667 C25.3946667,22.1613333 24.4586667,22.8626667 23.6586667,22.8626667 L17.0213333,22.8626667 C15.008,22.8626667 13.6786667,21.2933333 13.3466667,19.7546667 C13.0293333,18.2773333 13.2653333,16.4893333 13.2653333,14.98 C13.2653333,12.6506667 14.8093333,10.3413333 17.3813333,10.3413333 L20.0826667,10.3413333 C20.868,10.2986667 20.8333333,8.58133333 20.0826667,8.64133333 L15.86,8.64133333 C15.432,8.64133333 15.132,8.41466667 15.092,7.97866667 C15.092,6.93466667 15.092,5.89333333 15.092,4.84933333 C15.092,4.44933333 15.4213333,4.33066667 15.8053333,4.33066667 Z M18.5973333,14.6613333 C18.232,14.6613333 17.936,14.96 17.936,15.3253333 L17.936,18.016 C17.936,18.3826667 18.232,18.6813333 18.5973333,18.6813333 L20.1413333,18.6813333 C20.5053333,18.6813333 20.8053333,18.3826667 20.8053333,18.016 L20.8053333,15.3253333 C20.8053333,14.96 20.5053333,14.6613333 20.1413333,14.6613333 L18.5973333,14.6613333 Z" id="Fill-2" fill="#ffffff"></path>
                    <path d="M26.948,5.172 L26.948,12.72 C27.132,15.0866667 29.256,16.8586667 31.5666667,16.8586667 L33.704,16.8586667 C34.588,16.8586667 34.5346667,18.344 33.704,18.344 L29.08,18.344 C28.5786667,18.344 28.396,18.6053333 28.396,19.048 L28.396,22.3706667 C28.396,22.7053333 28.6666667,22.9573333 29.0213333,22.9573333 L33.3053333,22.9573333 C36.8786667,22.9573333 38.9133333,21.2426667 38.9133333,17.4 L38.9133333,4.88 C38.9133333,4.47066667 38.6546667,4.312 38.4066667,4.312 L34.8146667,4.312 C34.4826667,4.312 34.2893333,4.672 34.2893333,4.936 L34.2893333,11.7973333 C34.2893333,12.092 34.1253333,12.2653333 33.8613333,12.2653333 L32.1613333,12.2653333 C31.7706667,12.2653333 31.556,12.0533333 31.556,11.68 L31.556,5.05466667 C31.556,4.616 31.38,4.29333333 30.8946667,4.29333333 C29.744,4.29333333 28.5906667,4.29333333 27.44,4.29333333 C27.048,4.29333333 26.948,4.68266667 26.948,5.172" id="Fill-3" fill="#ffffff"></path>
                    <path d="M40.7186667,8.27466667 L40.7186667,5.01066667 C40.7186667,4.66 41.0066667,4.37333333 41.356,4.37333333 L42.1413333,4.37333333 C44.1653333,3.952 44.6466667,2.76533333 45.884,1.43066667 C46.644,0.606666667 47.312,0.390666667 47.804,1.264 L47.804,4.37333333 L49.6586667,4.37333333 C50.0093333,4.37333333 50.2946667,4.66 50.2946667,5.01066667 L50.2946667,8.27466667 C50.2946667,8.624 50.008,8.912 49.6586667,8.912 L47.8026667,8.912 L47.8026667,22.2853333 C47.8026667,22.636 47.516,22.9226667 47.1666667,22.9226667 L43.9013333,22.9226667 C43.552,22.9226667 43.2666667,22.636 43.2666667,22.2853333 L43.2666667,8.912 L41.356,8.912 C41.008,8.912 40.7186667,8.62533333 40.7186667,8.27466667" id="Fill-4" fill="#ffffff"></path>
                    <path d="M63.8386667,22.072 C63.8386667,22.5066667 63.4786667,22.8626667 63.0426667,22.8626667 L59.9853333,22.8626667 C59.5453333,22.8626667 59.188,22.5066667 59.188,22.072 L59.188,9.79733333 C59.212,8.47066667 56.5386667,8.264 56.5386667,9.79733333 L56.5386667,22.072 C56.5386667,22.5066667 56.18,22.8626667 55.7413333,22.8626667 L52.6853333,22.8626667 C52.2466667,22.8626667 51.8866667,22.5066667 51.8866667,22.072 L51.8866667,5.05466667 C51.8866667,4.616 52.2466667,4.26 52.6853333,4.26 L55.7413333,4.26 C56.18,4.26 56.5386667,4.616 56.5386667,5.05466667 L56.5386667,5.288 C58.3253333,3.57866667 61.4226667,3.84933333 63.0706667,5.62533333 C66.172,2.068 71.4853333,5.23733333 71.24,9.13866667 C71.24,13.452 71.2013333,17.7226667 71.2013333,22.072 C71.2013333,22.5066667 70.8413333,22.8626667 70.4053333,22.8626667 L67.348,22.8626667 C66.9093333,22.8626667 66.5506667,22.5066667 66.5506667,22.072 C66.5506667,17.952 66.5506667,13.9293333 66.5506667,9.87866667 C66.376,8.176 63.804,8.57333333 63.808,9.87866667 C63.808,13.9306667 63.8386667,17.9826667 63.8386667,22.072" id="Fill-5" fill="#ffffff"></path>
                </g>
                <g id="icons/maple-leaf" transform="translate(76.000000, 0.000000)" fill="#FF2D00">
                    <g>
                        <polygon points="20.7557588 12.2207135 19.6816547 11.2915647 20.3506998 8.54825097 18.0441195 8.59336428 17.380849 7.57494224 15.1241761 9.61085255 14.5933533 9.34497424 15.1241761 7.53080939 15.1241761 5.053374 13.7083619 5.58419685 11.878839 2 11.8769198 2 10.0473969 5.58419685 8.63158268 5.053374 8.63158268 7.53080939 9.16240552 9.34497424 8.63158268 9.61085255 6.37490983 7.57494224 5.71163929 8.59336428 3.40505897 8.54825097 4.07410413 11.2915647 3 12.2207135 6.90585554 16.0707887 6.7733931 17.3982881 10.4458065 16.6457444 11.5525434 16.6015894 11.5525434 22 12.2033309 22 12.2033309 16.6015894 13.3100678 16.6457444 16.9824812 17.3982881 16.8500188 16.0707887"></polygon>
                    </g>
                </g>
            </g>
        </g>
    </g>
</svg>